HIERARCHY
ROOT Hips
{
	OFFSET 0.0136489431 85.5290222 -2.13670418
	CHANNELS 6 Xposition Yposition Zposition Zrotation Yrotation Xrotation 
	JOINT Spine
	{
		OFFSET 2.30099286e-05 8.81424618 -2.08003235
		CHANNELS 3 Zrotation Yrotation Xrotation 
		JOINT Spine1
		{
			OFFSET 8.7261958e-07 8.84414387 -2.72457055e-06
			CHANNELS 3 Zrotation Yrotation Xrotation 
			JOINT Spine2
			{
				OFFSET -2.55740429e-06 11.682272 4.31642138e-06
				CHANNELS 3 Zrotation Yrotation Xrotation 
				JOINT Spine3
				{
					OFFSET 6.59586306e-07 11.7466984 -3.93247592e-06
					CHANNELS 3 Zrotation Yrotation Xrotation 
					JOINT Neck
					{
						OFFSET 8.48960008e-06 17.6582756 -8.42700974e-05
						CHANNELS 3 Zrotation Yrotation Xrotation 
						JOINT Neck1
						{
							OFFSET 3.79443094e-07 5.10151863 3.26421036e-06
							CHANNELS 3 Zrotation Yrotation Xrotation 
							JOINT Head
							{
								OFFSET -9.47953868e-06 5.10151625 8.86555881e-06
								CHANNELS 3 Zrotation Yrotation Xrotation 
								JOINT HeadEnd
								{
									OFFSET -4.13024277e-16 11.6550846 5.50596564e-14
									CHANNELS 3 Zrotation Yrotation Xrotation 
									End Site
									{
										OFFSET 0 0 0
									}
								}
							}
						}
					}
				}
				JOINT RightShoulder
				{
					OFFSET -2.62538743 11.1752224 -4.81263169e-06
					CHANNELS 3 Zrotation Yrotation Xrotation 
					JOINT RightArm
					{
						OFFSET -1.50603675e-06 10.4347115 1.24267818e-05
						CHANNELS 3 Zrotation Yrotation Xrotation 
						JOINT RightForeArm
						{
							OFFSET 0.069977134 25.8717893 -0.536955001
							CHANNELS 3 Zrotation Yrotation Xrotation 
							JOINT RightHand
							{
								OFFSET 0.298976964 24.8929021 -0.0338061789
								CHANNELS 3 Zrotation Yrotation Xrotation 
								JOINT RightHandThumb1
								{
									OFFSET -2.86730862 3.95956302 2.94429946
									CHANNELS 3 Zrotation Yrotation Xrotation 
									JOINT RightHandThumb2
									{
										OFFSET 5.44471726e-06 3.35039091 -6.88177021e-07
										CHANNELS 3 Zrotation Yrotation Xrotation 
										JOINT RightHandThumb3
										{
											OFFSET -5.18119812e-06 3.75651813 3.88906735e-06
											CHANNELS 3 Zrotation Yrotation Xrotation 
											JOINT RightHandThumb4
											{
												OFFSET -4.83070982e-07 3.1473465 -1.11636681e-06
												CHANNELS 3 Zrotation Yrotation Xrotation 
												End Site
												{
													OFFSET 0 0 0
												}
											}
										}
									}
								}
							}
							JOINT RightHandIndex1
							{
								OFFSET -0.0867566392 10.030899 2.34528232
								CHANNELS 3 Zrotation Yrotation Xrotation 
								JOINT RightHandIndex2
								{
									OFFSET -3.76662116e-06 4.06108809 3.41322158e-06
									CHANNELS 3 Zrotation Yrotation Xrotation 
									JOINT RightHandIndex3
									{
										OFFSET 2.12695065e-06 3.2488718 -2.91990217e-06
										CHANNELS 3 Zrotation Yrotation Xrotation 
										JOINT RightHandIndex4
										{
											OFFSET 1.19115619e-07 2.6397078 2.31537559e-06
											CHANNELS 3 Zrotation Yrotation Xrotation 
											End Site
											{
												OFFSET 0 0 0
											}
										}
									}
								}
							}
						}
						JOINT RightHandMiddle1
						{
							OFFSET 0.104109198 9.50295544 0.00677696662
							CHANNELS 3 Zrotation Yrotation Xrotation 
							JOINT RightHandMiddle2
							{
								OFFSET -4.00518747e-07 4.56873274 5.93760964e-06
								CHANNELS 3 Zrotation Yrotation Xrotation 
								JOINT RightHandMiddle3
								{
									OFFSET 7.54751455e-06 3.6549809 -3.29262286e-06
									CHANNELS 3 Zrotation Yrotation Xrotation 
									JOINT RightHandMiddle4
									{
										OFFSET -2.47242271e-06 2.74122977 5.72284435e-06
										CHANNELS 3 Zrotation Yrotation Xrotation 
										End Site
										{
											OFFSET 0 0 0
										}
									}
								}
							}
						}
					}
					JOINT RightHandRing1
					{
						OFFSET 0.0867536962 8.92171097 -2.26744866
						CHANNELS 3 Zrotation Yrotation Xrotation 
						JOINT RightHandRing2
						{
							OFFSET -8.49416485e-06 4.06109715 8.33849263e-08
							CHANNELS 3 Zrotation Yrotation Xrotation 
							JOINT RightHandRing3
							{
								OFFSET -2.69741424e-07 3.65497613 8.05873964e-06
								CHANNELS 3 Zrotation Yrotation Xrotation 
								JOINT RightHandRing4
								{
									OFFSET -1.75682811e-07 2.74124503 -6.02012545e-07
									CHANNELS 3 Zrotation Yrotation Xrotation 
									End Site
									{
										OFFSET 0 0 0
									}
								}
							}
						}
					}
				}
				JOINT RightHandPinky1
				{
					OFFSET -0.173490137 7.97699213 -4.46720457
					CHANNELS 3 Zrotation Yrotation Xrotation 
					JOINT RightHandPinky2
					{
						OFFSET -5.09637176e-06 3.35040545 -1.14142521e-05
						CHANNELS 3 Zrotation Yrotation Xrotation 
						JOINT RightHandPinky3
						{
							OFFSET -2.41064345e-06 2.84276104 3.31119791e-07
							CHANNELS 3 Zrotation Yrotation Xrotation 
							JOINT RightHandPinky4
							{
								OFFSET -4.84227395e-06 2.63970661 4.19883692e-06
								CHANNELS 3 Zrotation Yrotation Xrotation 
								End Site
								{
									OFFSET 0 0 0
								}
							}
						}
					}
				}
			}
			JOINT RightForeArmEnd
			{
				OFFSET -2.56183113e-14 -1.74232385e-16 -6.35784429e-17
				CHANNELS 3 Zrotation Yrotation Xrotation 
				End Site
				{
					OFFSET 0 0 0
				}
			}
		}
	}
	JOINT RightArmEnd
	{
		OFFSET -6.99860395e-14 1.22731819e-14 -1.81852944e-16
		CHANNELS 3 Zrotation Yrotation Xrotation 
		End Site
		{
			OFFSET 0 0 0
		}
	}
}
MOTION
Frames: 10
Frame Time: 0.033333
0.00206339773 89.6875169 0.432699401 0.0345697229 -0.0101270319 1.49218048 0.0360552351 -0.0108008429 1.41324235 0.0360508656 -0.0110624887 1.23432218 0.0360393251 -0.011358859 0.996972858 -0.00567901732 0.00167118639 -0.202252372 0 0 -0 0 0 -0 0 0 -0 0 0 -0 -0.0122096355 0.0254333057 0.97141082 -0.0121448109 0.0219199731 0.757635585 -0.0104114045 0.0121528061 0.234150402 -0.00423413042 -0.000685102787 -0.277062625 0 0 -0 0 0 -0 0 0 -0 0 0 -0 0 0 -0 0 0 -0 0 0 -0 0 0 -0 0 0 -0 0 0 -0 0 0 -0 0 0 -0 0 0 -0 0 0 -0 0 0 -0 0 0 -0 0 0 -0 0 0 -0 0 0 -0 0 0 -0 0 0 -0 0 0 -0 
-214.431888 89.3021937 29.0678903 1.5279378 -25.5880483 2.05814351 -0.6854485 -3.86699642 -0.909816986 -0.643532434 -3.59765702 -1.37875106 -0.586488941 -3.224833 -2.00442663 0.676815418 -7.40633899 0.432790154 0 0 -0 0 0 -0 0 0 -0 0 0 -0 -1.14966989 4.65843284 -2.95785457 -1.06185099 4.6624802 -3.52812039 -0.922753972 4.67757903 -4.82562281 -0.755008164 4.63531027 -6.06475114 0 0 -0 0 0 -0 0 0 -0 0 0 -0 0 0 -0 0 0 -0 0 0 -0 0 0 -0 0 0 -0 0 0 -0 0 0 -0 0 0 -0 0 0 -0 0 0 -0 0 0 -0 0 0 -0 0 0 -0 0 0 -0 0 0 -0 0 0 -0 0 0 -0 0 0 -0 
-214.7505 89.3935706 29.0152018 7.5649873 -44.1396483 8.48648132 -0.849776896 -2.12928911 0.270539188 -0.773319538 -1.65917803 -0.95772671 -0.599557028 -1.02515256 -2.55503928 1.95049758 -14.3725282 2.31754494 0 0 -0 0 0 -0 0 0 -0 0 0 -0 -1.48831083 14.338278 -5.92151898 -0.729095554 14.1060491 -7.40437008 0.0763193409 13.1575432 -10.5611037 0.541639036 11.8390257 -13.3220377 0 0 -0 0 0 -0 0 0 -0 0 0 -0 0 0 -0 0 0 -0 0 0 -0 0 0 -0 0 0 -0 0 0 -0 0 0 -0 0 0 -0 0 0 -0 0 0 -0 0 0 -0 0 0 -0 0 0 -0 0 0 -0 0 0 -0 0 0 -0 0 0 -0 0 0 -0 
-215.018907 89.406628 28.841149 14.1769868 -54.7152976 15.1872113 -1.20729611 0.0937674281 1.30107921 -1.05390116 0.706868852 -0.622107346 -0.710239913 1.50466349 -3.11961551 2.76233519 -14.9726749 1.40468695 0 0 -0 0 0 -0 0 0 -0 0 0 -0 -2.17713612 17.8337427 -5.9859353 -0.926501219 17.4029124 -8.22089635 0.190003432 15.4381147 -13.0124809 0.310577465 12.9059197 -16.9380895 0 0 -0 0 0 -0 0 0 -0 0 0 -0 0 0 -0 0 0 -0 0 0 -0 0 0 -0 0 0 -0 0 0 -0 0 0 -0 0 0 -0 0 0 -0 0 0 -0 0 0 -0 0 0 -0 0 0 -0 0 0 -0 0 0 -0 0 0 -0 0 0 -0 0 0 -0 
-215.298767 89.2768715 28.5490689 18.422085 -57.9981225 19.4129791 -1.41384049 1.02975785 2.27455465 -1.23654451 1.769729 -0.260262361 -0.810704666 2.70042991 -3.55953596 3.49478881 -14.8109387 -0.0886158191 0 0 -0 0 0 -0 0 0 -0 0 0 -0 -3.10565732 19.1550505 -5.18940422 -1.46304838 18.5742972 -8.03260745 -0.227273946 15.691529 -14.2266852 -0.723053197 12.1598726 -19.0789926 0 0 -0 0 0 -0 0 0 -0 0 0 -0 0 0 -0 0 0 -0 0 0 -0 0 0 -0 0 0 -0 0 0 -0 0 0 -0 0 0 -0 0 0 -0 0 0 -0 0 0 -0 0 0 -0 0 0 -0 0 0 -0 0 0 -0 0 0 -0 0 0 -0 0 0 -0 
-215.5338 89.0090335 28.0966228 22.4697133 -59.8243931 23.3893746 -1.57220118 1.65846763 3.2033548 -1.37085878 2.52018606 0.118976737 -0.873602677 3.56882402 -3.90662545 4.27519112 -14.6897864 -1.51914043 0 0 -0 0 0 -0 0 0 -0 0 0 -0 -4.08961985 20.1279906 -4.24452388 -2.04978506 19.4221012 -7.64081408 -0.697298186 15.6777473 -15.1418817 -1.82628615 11.2446675 -20.8503563 0 0 -0 0 0 -0 0 0 -0 0 0 -0 0 0 -0 0 0 -0 0 0 -0 0 0 -0 0 0 -0 0 0 -0 0 0 -0 0 0 -0 0 0 -0 0 0 -0 0 0 -0 0 0 -0 0 0 -0 0 0 -0 0 0 -0 0 0 -0 0 0 -0 0 0 -0 
-215.582961 88.7160272 27.7362234 24.5401104 -60.6073321 25.3856161 -1.61610048 1.87289959 3.60585476 -1.40280816 2.79144852 0.281584168 -0.874758067 3.89268721 -4.06273859 4.70001134 -14.6257395 -2.13435828 0 0 -0 0 0 -0 0 0 -0 0 0 -0 -4.59173686 20.4768638 -3.79505623 -2.37716991 19.7285375 -7.41518871 -0.972443586 15.6216049 -15.4834176 -2.38825458 10.8194188 -21.5633272 0 0 -0 0 0 -0 0 0 -0 0 0 -0 0 0 -0 0 0 -0 0 0 -0 0 0 -0 0 0 -0 0 0 -0 0 0 -0 0 0 -0 0 0 -0 0 0 -0 0 0 -0 0 0 -0 0 0 -0 0 0 -0 0 0 -0 0 0 -0 0 0 -0 0 0 -0 
-215.375256 88.468509 27.4858325 26.2725617 -61.3055283 27.0837111 -1.68948114 2.00335951 3.90489575 -1.4669103 2.97026339 0.394978048 -0.916432403 4.1201837 -4.19672808 5.05058936 -14.5769204 -2.60369405 0 0 -0 0 0 -0 0 0 -0 0 0 -0 -5.05296947 20.7262683 -3.43777023 -2.70569328 19.9555797 -7.21194256 -1.2541209 15.5827431 -15.7157897 -2.88445641 10.5129414 -22.0834795 0 0 -0 0 0 -0 0 0 -0 0 0 -0 0 0 -0 0 0 -0 0 0 -0 0 0 -0 0 0 -0 0 0 -0 0 0 -0 0 0 -0 0 0 -0 0 0 -0 0 0 -0 0 0 -0 0 0 -0 0 0 -0 0 0 -0 0 0 -0 0 0 -0 0 0 -0 
-214.848799 88.3287923 27.3941698 27.4347699 -61.9748253 28.2097626 -1.77730374 2.07002517 4.04457551 -1.55037722 3.07382331 0.402872524 -0.988601243 4.26514195 -4.36461738 5.2401376 -14.5545034 -2.98840328 0 0 -0 0 0 -0 0 0 -0 0 0 -0 -5.3737372 20.9018609 -3.22439848 -2.94733713 20.1121335 -7.10859925 -1.48015463 15.547118 -15.9246571 -3.28223299 10.2918007 -22.4948949 0 0 -0 0 0 -0 0 0 -0 0 0 -0 0 0 -0 0 0 -0 0 0 -0 0 0 -0 0 0 -0 0 0 -0 0 0 -0 0 0 -0 0 0 -0 0 0 -0 0 0 -0 0 0 -0 0 0 -0 0 0 -0 0 0 -0 0 0 -0 0 0 -0 0 0 -0 
-214.509776 88.2609071 27.1476122 28.2895865 -62.4888247 28.9653933 -1.78860314 2.12030548 4.11383289 -1.5594877 3.14890105 0.383896621 -0.990761821 4.36444575 -4.50136722 5.33351918 -14.5519838 -3.24871319 0 0 -0 0 0 -0 0 0 -0 0 0 -0 -5.50614224 21.0303245 -3.13699994 -3.04188683 20.2157373 -7.11256243 -1.59050328 15.5085793 -16.1374139 -3.53537457 10.1227223 -22.8360568 0 0 -0 0 0 -0 0 0 -0 0 0 -0 0 0 -0 0 0 -0 0 0 -0 0 0 -0 0 0 -0 0 0 -0 0 0 -0 0 0 -0 0 0 -0 0 0 -0 0 0 -0 0 0 -0 0 0 -0 0 0 -0 0 0 -0 0 0 -0 0 0 -0 0 0 -0 
